<svg width="32" height="32" viewBox="0 0 32 32" fill="none" xmlns="http://www.w3.org/2000/svg">
<path d="M18.3915 4.40367C20.3253 4.40367 22.0328 4.62014 23.514 5.05307C25.0158 5.46538 26.3015 6.04262 27.3713 6.78478C28.441 7.52695 29.3153 8.39281 29.9942 9.38236C30.6731 10.3513 31.1771 11.3924 31.5063 12.5056C31.8354 13.6189 32 14.7528 32 15.9072C32 17.3709 31.7326 18.8037 31.1977 20.2056C30.6834 21.5869 29.8708 22.8341 28.7599 23.9474C27.6696 25.0606 26.2604 25.9471 24.5323 26.6068C22.8248 27.2665 20.7779 27.5963 18.3915 27.5963H0C0 26.2769 0 24.9678 0 23.669C0 22.3496 0 21.0405 0 19.7418C0 18.4223 0 17.1132 0 15.8145C0 14.4951 0 13.1757 0 11.8562C0 10.6193 0 9.38236 0 8.14542C0 6.88786 0 5.64061 0 4.40367H18.3915ZM15.9229 13.3097H12.2507C12.2507 13.3097 12.2404 13.3097 12.2199 13.3097C12.2199 13.3097 12.2199 13.32 12.2199 13.3406C12.2199 13.3406 12.2199 13.3509 12.2199 13.3715V18.6285C12.2199 18.6491 12.2199 18.6697 12.2199 18.6904C12.2404 18.6904 12.2507 18.6904 12.2507 18.6904H15.9846C16.4372 18.6904 16.8383 18.6182 17.188 18.4739C17.5583 18.3296 17.8669 18.1337 18.1138 17.8863C18.3607 17.639 18.5458 17.3503 18.6692 17.0205C18.8132 16.6906 18.8852 16.3505 18.8852 16C18.8852 15.5052 18.7618 15.0517 18.5149 14.6394C18.2887 14.2271 17.9595 13.9075 17.5275 13.6807C17.0955 13.4333 16.5606 13.3097 15.9229 13.3097Z" fill="#346E17"/>
</svg>
