<svg width="218" height="158" viewBox="0 0 218 158" fill="none" xmlns="http://www.w3.org/2000/svg">
<path d="M125.292 0C138.466 0 150.098 1.47467 160.189 4.42401C170.42 7.23289 179.179 11.1653 186.467 16.2213C193.754 21.2773 199.711 27.176 204.336 33.9173C208.96 40.5182 212.394 47.6107 214.636 55.1947C216.879 62.7787 218 70.5031 218 78.368C218 88.3396 216.178 98.1004 212.534 107.651C209.031 117.06 203.495 125.557 195.927 133.141C188.499 140.725 178.899 146.764 167.126 151.259C155.494 155.753 141.549 158 125.292 158H0C0 149.012 0 140.093 0 131.245C0 122.257 0 113.339 0 104.491C0 95.5022 0 86.584 0 77.736C0 68.7476 0 59.7591 0 50.7707C0 42.344 0 33.9173 0 25.4907C0 16.9236 0 8.42667 0 0H125.292ZM108.474 60.672H83.4581C83.4581 60.672 83.388 60.672 83.2478 60.672C83.2478 60.672 83.2478 60.7422 83.2478 60.8827C83.2478 60.8827 83.2478 60.9529 83.2478 61.0933V96.9067C83.2478 97.0471 83.2478 97.1876 83.2478 97.328C83.388 97.328 83.4581 97.328 83.4581 97.328H108.895C111.978 97.328 114.711 96.8364 117.094 95.8533C119.616 94.8702 121.718 93.536 123.4 91.8507C125.082 90.1653 126.343 88.1991 127.184 85.952C128.165 83.7049 128.656 81.3876 128.656 79C128.656 75.6293 127.815 72.5396 126.133 69.7307C124.591 66.9218 122.349 64.7449 119.406 63.2C116.463 61.5147 112.819 60.672 108.474 60.672Z" fill="#346E17"/>
</svg>
